<?xml version="1.0" standalone="no"?>
<!DOCTYPE svg PUBLIC "-//W3C//DTD SVG 20010904//EN"
 "http://www.w3.org/TR/2001/REC-SVG-20010904/DTD/svg10.dtd">
<svg version="1.0" xmlns="http://www.w3.org/2000/svg"
 width="1080.000000pt" height="1080.000000pt" viewBox="0 0 1080.000000 1080.000000"
 preserveAspectRatio="xMidYMid meet">
<metadata>
Created by potrace 1.11, written by Peter Selinger 2001-2013
</metadata>
<g transform="translate(0.000000,1080.000000) scale(0.100000,-0.100000)"
fill="#000000" stroke="none">
<path d="M3638 9788 c-3 -8 -59 -14 -184 -20 -239 -10 -448 -26 -565 -44 -53
-8 -112 -14 -130 -14 -48 0 -78 -23 -77 -60 1 -16 -4 -35 -10 -42 -12 -15 -32
-96 -57 -228 -9 -47 -30 -131 -45 -188 -16 -57 -41 -178 -55 -270 -14 -92 -39
-248 -55 -347 -16 -99 -41 -270 -55 -380 -14 -110 -27 -211 -30 -225 -3 -14
-14 -108 -25 -210 -12 -102 -30 -244 -40 -317 -11 -73 -26 -208 -34 -300 -9
-93 -27 -249 -40 -348 -14 -99 -28 -216 -32 -260 -3 -44 -19 -181 -35 -304
-44 -340 -61 -583 -58 -858 2 -134 0 -246 -4 -249 -19 -19 0 -49 75 -116 45
-40 125 -114 178 -165 52 -50 108 -102 124 -114 16 -13 59 -51 95 -86 139
-133 158 -136 943 -130 570 4 819 12 1177 38 84 6 157 7 161 2 4 -4 1 -69 -6
-143 -42 -411 -76 -733 -86 -790 -6 -36 -11 -78 -11 -95 0 -61 -18 -245 -42
-424 -14 -101 -25 -227 -25 -280 0 -53 -7 -141 -15 -196 -15 -93 -28 -336 -26
-450 1 -27 1 -81 1 -119 -1 -77 7 -107 66 -231 41 -86 61 -112 131 -165 51
-39 77 -51 140 -65 43 -9 96 -21 118 -25 115 -26 414 -54 743 -70 268 -13
1072 -13 1237 0 72 6 186 15 255 20 585 44 653 60 821 188 154 117 165 132
190 256 37 187 60 422 45 464 -7 20 32 300 84 602 11 63 31 194 44 290 23 155
24 181 13 225 -10 38 -21 55 -47 73 -34 23 -36 23 -280 18 -135 -3 -279 -8
-320 -11 -41 -3 -178 -10 -305 -14 -258 -10 -317 -21 -371 -75 -36 -36 -50
-90 -88 -329 -19 -119 -28 -153 -45 -170 -21 -21 -29 -22 -345 -25 -179 -2
-339 1 -358 6 -30 8 -34 12 -40 58 -8 56 12 291 48 569 13 105 29 235 35 290
9 91 27 186 74 405 9 41 22 80 30 86 35 27 610 47 740 26 l50 -8 -3 -74 c-2
-41 -8 -79 -13 -84 -14 -15 -11 -59 6 -102 48 -119 68 -155 101 -182 67 -54
81 -55 447 -55 448 1 529 14 611 96 52 53 126 144 126 154 0 6 18 27 40 47 22
20 40 39 40 43 0 4 9 16 20 28 17 18 29 70 60 261 22 131 47 293 56 359 8 66
24 172 35 235 39 225 92 586 94 640 1 30 10 82 18 115 28 103 21 250 -12 291
-24 29 -117 66 -191 75 -36 4 -123 15 -195 24 -197 24 -328 35 -570 45 -340
15 -1077 29 -1522 30 l-401 0 -23 38 c-13 20 -27 39 -31 40 -4 2 -8 8 -8 13 0
5 -46 72 -102 149 -57 77 -118 162 -135 188 -51 74 -68 77 -348 76 -431 -1
-808 -33 -862 -72 -43 -32 -81 -148 -114 -352 -16 -102 -34 -195 -39 -206 -7
-17 -23 -24 -72 -33 -35 -6 -73 -8 -85 -5 -20 5 -22 11 -18 48 2 22 7 68 10
101 5 55 30 214 120 775 40 250 64 430 67 514 l3 60 50 24 c47 24 88 37 147
49 l27 5 -6 -115 -6 -115 36 -50 c20 -27 74 -78 119 -113 46 -35 92 -72 103
-82 47 -44 184 -126 234 -141 85 -25 238 -29 636 -17 476 15 558 31 561 107 1
16 9 65 17 109 9 44 23 136 32 206 14 111 61 315 154 669 75 289 90 351 105
441 18 103 16 120 -29 254 -17 53 -20 62 -54 137 -12 26 -21 50 -21 53 0 19
-144 313 -186 380 -17 28 -50 70 -74 93 -37 39 -45 43 -75 38 -19 -4 -84 2
-147 13 -354 62 -734 91 -1203 92 -355 1 -547 10 -553 27 -5 17 -649 17 -654
0z m1187 -127 c413 -10 662 -23 797 -41 46 -5 121 -15 168 -21 47 -6 128 -17
180 -25 52 -7 111 -15 130 -16 l35 -3 -2 -50 c-2 -27 -14 -135 -27 -240 -14
-104 -29 -247 -35 -316 -18 -214 -103 -728 -143 -864 -12 -38 -38 -153 -58
-255 l-37 -185 -74 -7 c-283 -27 -409 -33 -679 -33 l-305 0 2 90 c9 504 8 542
-9 562 -29 32 -107 43 -296 43 -289 -1 -514 -16 -555 -37 -83 -42 -111 -135
-137 -438 -6 -66 -26 -196 -45 -290 -19 -93 -44 -242 -55 -330 -11 -88 -29
-223 -40 -300 -56 -403 -68 -628 -38 -707 18 -49 45 -53 393 -53 478 1 490 5
521 198 55 355 64 393 95 412 20 13 345 35 679 46 l335 11 21 -25 c19 -22 20
-31 13 -69 -5 -23 -32 -198 -60 -388 -27 -190 -52 -352 -55 -360 -3 -8 -10
-78 -15 -155 -8 -126 -89 -678 -100 -690 -6 -5 -233 -20 -619 -40 -541 -28
-1884 -18 -2069 15 -30 6 -77 10 -104 10 -27 0 -93 7 -146 15 -53 9 -130 20
-171 26 -131 18 -120 10 -122 92 -1 39 -1 83 -1 97 1 14 2 75 2 135 2 130 17
361 31 460 37 265 62 463 75 610 9 94 22 215 30 270 25 175 35 257 45 385 10
118 38 343 95 755 13 99 26 212 29 250 3 39 22 167 41 285 20 118 49 298 65
400 16 102 40 226 55 275 26 90 67 300 80 408 4 33 11 57 18 57 7 0 66 5 132
11 447 39 950 44 1930 20z m1542 -471 c15 -30 30 -65 35 -77 8 -22 15 -40 39
-100 6 -16 17 -41 24 -58 8 -16 19 -48 26 -70 6 -22 16 -49 21 -60 12 -27 -54
-414 -80 -475 -11 -25 -30 -94 -42 -155 -12 -60 -28 -122 -36 -137 -8 -15 -23
-68 -35 -117 -26 -112 -39 -126 -112 -117 -57 7 -154 56 -164 83 -3 8 4 54 16
102 20 80 52 252 100 536 39 227 71 490 81 655 6 91 13 176 16 190 6 26 7 24
111 -200z m-2353 -1294 c39 -35 117 -109 174 -163 83 -82 102 -105 102 -129
-1 -28 -31 -238 -85 -579 -55 -349 -90 -540 -100 -540 -5 0 -28 38 -52 85 -39
79 -55 122 -85 225 -6 22 -18 60 -26 85 -21 65 -43 148 -62 235 -5 22 -14 58
-20 80 -29 104 -30 115 -16 203 8 48 26 134 39 192 14 58 28 143 32 190 8 117
16 180 22 180 3 0 38 -29 77 -64z m1821 -1399 c28 -40 51 -78 53 -84 2 -7 8
-13 13 -13 5 0 9 -5 9 -10 0 -6 18 -35 40 -65 22 -30 40 -57 40 -61 0 -4 11
-22 25 -40 14 -18 25 -36 25 -39 0 -4 33 -53 74 -110 l74 -103 -13 -70 c-8
-39 -21 -85 -30 -102 -9 -17 -25 -72 -36 -121 -11 -50 -26 -100 -33 -112 -8
-12 -21 -57 -30 -100 -9 -43 -25 -99 -36 -125 -15 -35 -60 -221 -60 -248 0
-16 -109 4 -257 47 -18 5 -49 13 -69 18 -20 5 -40 13 -44 18 -4 4 1 55 11 113
56 310 79 463 79 535 0 79 98 745 109 745 3 -1 29 -33 56 -73z m1024 -207
c1101 -18 1353 -32 1866 -98 l130 -17 -3 -105 c-2 -58 -10 -157 -17 -220 -8
-63 -21 -191 -30 -285 -8 -93 -24 -219 -35 -280 -11 -60 -29 -166 -40 -235
-25 -148 -70 -358 -105 -489 -14 -52 -28 -117 -31 -146 -6 -49 -9 -53 -37 -59
-16 -3 -59 -6 -96 -6 -36 0 -95 -5 -131 -10 -83 -11 -823 -34 -855 -26 l-25 6
6 148 c10 240 8 404 -5 443 -21 63 -29 64 -452 63 -467 -2 -487 -5 -544 -95
-42 -65 -56 -135 -65 -319 -7 -131 -17 -211 -40 -320 -17 -80 -37 -206 -45
-280 -9 -74 -27 -214 -41 -310 -37 -258 -58 -551 -43 -620 22 -99 1 -95 459
-95 l396 1 49 24 c76 39 81 50 115 280 34 234 40 261 61 271 37 19 521 44 864
44 254 0 260 0 258 -20 -1 -11 -11 -83 -23 -160 -21 -150 -51 -401 -76 -635
-16 -160 -77 -608 -97 -710 l-12 -65 -70 -7 c-343 -34 -1044 -51 -1880 -45
-372 3 -714 10 -770 16 -55 6 -161 16 -235 22 -74 6 -174 17 -223 25 -48 8
-104 14 -125 14 -20 0 -59 6 -87 13 l-50 13 -5 245 c-3 134 -2 271 2 304 4 33
11 137 17 230 5 94 19 235 30 315 27 187 48 372 61 535 6 72 24 243 40 380 16
138 31 303 35 367 6 138 15 168 47 168 58 0 856 50 884 55 31 7 58 53 59 103
1 23 9 50 18 60 9 10 19 38 23 62 4 25 19 79 35 120 16 41 38 129 49 195 12
74 25 124 34 131 8 6 22 44 32 85 9 41 23 82 31 91 13 14 46 175 72 345 4 29
15 61 24 70 21 24 43 151 28 166 -6 6 -11 19 -11 28 0 10 -10 26 -23 36 -12
10 -46 55 -74 100 l-52 82 27 4 c49 7 99 7 701 -3z m1591 -2067 c0 -5 -29 -39
-64 -76 l-64 -69 -129 -9 c-252 -17 -410 -22 -425 -13 -8 5 -40 39 -71 75
l-56 66 257 7 c141 4 280 11 307 15 66 11 245 13 245 4z m-290 -2366 c0 -7
-127 -95 -170 -119 -92 -50 -159 -65 -351 -77 -69 -5 -134 -11 -145 -14 -10
-3 -71 -8 -134 -12 -63 -3 -148 -11 -188 -17 l-72 -11 -78 42 c-42 22 -116 60
-164 83 -48 24 -87 46 -87 49 -1 3 108 9 242 13 716 22 933 34 1012 56 28 8
135 13 135 7z"/>
</g>
</svg>
