<?xml version="1.0" standalone="no"?>
<!DOCTYPE svg PUBLIC "-//W3C//DTD SVG 20010904//EN"
 "http://www.w3.org/TR/2001/REC-SVG-20010904/DTD/svg10.dtd">
<svg version="1.0" xmlns="http://www.w3.org/2000/svg"
 width="1000.000000pt" height="1000.000000pt" viewBox="0 0 1000.000000 1000.000000"
 preserveAspectRatio="xMidYMid meet">
<metadata>
Created by potrace 1.11, written by Peter Selinger 2001-2013
</metadata>
<g transform="translate(0.000000,1000.000000) scale(0.100000,-0.100000)"
fill="#000000" stroke="none">
<path d="M0 9925 c0 -59 3 -74 13 -68 32 20 166 124 172 133 4 6 -28 10 -89
10 l-96 0 0 -75z"/>
<path d="M795 9975 c22 -13 48 -25 57 -25 9 0 20 -5 24 -11 5 -8 29 -10 74 -5
59 5 73 3 114 -19 53 -28 104 -32 145 -10 31 15 41 33 41 71 l0 24 -247 0
-248 0 40 -25z"/>
<path d="M3150 9990 c0 -16 31 -74 44 -82 6 -4 19 -8 28 -8 32 0 123 40 158
69 l35 30 -132 1 c-87 0 -133 -4 -133 -10z"/>
<path d="M5591 9975 l25 -26 115 11 c63 5 146 16 184 24 69 14 68 14 -140 15
l-210 1 26 -25z"/>
<path d="M6213 9993 c9 -2 25 -2 35 0 9 3 1 5 -18 5 -19 0 -27 -2 -17 -5z"/>
<path d="M7010 9989 c90 -12 247 -35 425 -63 83 -14 184 -29 225 -35 71 -11
167 -35 270 -67 25 -8 95 -19 155 -25 167 -15 285 -36 387 -68 51 -16 107 -31
123 -34 45 -7 290 -94 374 -133 132 -61 317 -214 389 -321 67 -102 109 -367
92 -588 -11 -142 -61 -416 -95 -525 -15 -47 -40 -146 -56 -220 -23 -107 -38
-150 -70 -204 -32 -57 -39 -76 -34 -105 6 -37 21 -61 38 -61 6 0 43 -25 83
-55 253 -190 390 -444 371 -688 -6 -88 -32 -165 -88 -260 -61 -104 -85 -157
-93 -201 -4 -21 -15 -50 -23 -63 -15 -23 -15 -30 0 -91 10 -37 20 -87 23 -112
4 -25 15 -76 25 -115 10 -38 25 -119 35 -180 9 -60 23 -117 30 -125 27 -32 44
-91 44 -153 0 -96 8 -124 36 -131 32 -8 59 -64 50 -101 -9 -36 -50 -75 -79
-75 -21 0 -25 -6 -30 -45 -7 -47 8 -141 23 -150 5 -3 5 7 -1 24 -14 40 10 95
53 121 45 28 74 25 109 -9 40 -40 40 -88 -1 -134 -35 -41 -72 -50 -117 -32
-32 14 -33 14 -18 -8 8 -12 21 -48 29 -79 8 -31 33 -90 54 -131 22 -41 48
-103 56 -138 22 -85 48 -113 100 -105 21 4 51 13 67 22 l29 15 0 243 0 243
-39 7 c-47 7 -81 45 -81 88 0 41 48 88 89 88 l31 0 0 2395 0 2395 -1527 -1
c-889 -1 -1501 -5 -1463 -10z m2673 -1299 c32 -25 51 -80 42 -121 -10 -44 -60
-97 -100 -105 -71 -13 -132 52 -122 129 13 96 113 150 180 97z m27 -509 c0
-24 -11 -32 -28 -22 -16 10 -5 41 14 41 8 0 14 -9 14 -19z m-179 -427 c9 -11
10 -20 2 -32 -13 -22 -43 -22 -56 -1 -24 38 25 68 54 33z m-241 -99 c0 -8 -4
-15 -9 -15 -13 0 -22 16 -14 24 11 11 23 6 23 -9z m254 -44 c34 -38 -8 -88
-45 -55 -22 20 -24 45 -7 62 17 17 32 15 52 -7z m351 -2810 c3 -5 1 -12 -5
-16 -5 -3 -10 1 -10 9 0 18 6 21 15 7z"/>
<path d="M3028 9109 c-3 -8 -77 -16 -213 -25 -323 -20 -530 -45 -565 -66 -12
-8 -19 -22 -18 -38 1 -14 -3 -34 -10 -46 -6 -11 -20 -72 -32 -135 -12 -63 -37
-172 -55 -244 -18 -71 -43 -191 -55 -265 -12 -74 -37 -227 -56 -340 -50 -298
-121 -800 -129 -909 -3 -52 -19 -187 -36 -300 -16 -113 -34 -269 -40 -346 -5
-77 -21 -213 -34 -303 -14 -90 -31 -232 -40 -315 -9 -84 -29 -262 -45 -397
-31 -259 -50 -657 -40 -825 4 -65 2 -95 -7 -110 -7 -11 -13 -22 -13 -26 0 -10
39 -49 110 -109 35 -30 111 -100 168 -155 57 -55 114 -107 127 -115 12 -8 51
-43 86 -77 75 -73 137 -106 234 -125 88 -16 1077 -16 1350 1 441 26 760 41
888 41 l137 0 0 -37 c0 -21 -14 -157 -31 -303 -17 -146 -32 -295 -34 -332 -5
-88 -21 -224 -52 -438 -16 -114 -23 -196 -19 -237 3 -37 -2 -110 -14 -185 -28
-186 -32 -241 -22 -268 5 -16 4 -56 -4 -110 -10 -62 -10 -94 -2 -119 6 -18 8
-58 4 -90 -6 -54 -1 -78 34 -156 46 -107 73 -154 102 -181 61 -58 129 -104
154 -104 21 0 23 -3 14 -19 -19 -37 -12 -68 18 -80 42 -17 81 0 89 40 5 27 9
30 32 24 23 -7 56 -11 196 -29 306 -40 674 -59 1185 -63 300 -3 484 0 520 6
55 11 309 34 550 51 274 20 414 45 507 93 62 33 230 165 260 206 33 46 61 162
84 361 6 52 17 109 25 127 19 43 18 120 -2 140 -12 12 -14 27 -9 57 3 23 22
142 41 266 19 124 41 254 49 290 25 117 58 407 52 462 -5 43 -13 59 -38 82
l-33 29 -340 -6 c-577 -11 -768 -22 -842 -48 -35 -13 -74 -34 -88 -48 -34 -37
-62 -133 -91 -321 -21 -134 -30 -168 -47 -182 -18 -16 -51 -18 -357 -18 -185
0 -342 4 -349 9 -29 18 -7 348 43 664 8 51 21 160 29 242 8 83 26 197 40 255
13 58 30 134 38 170 l13 65 90 7 c302 22 423 27 530 22 181 -8 169 -2 160 -87
-4 -41 -13 -79 -22 -89 -13 -14 -13 -22 -2 -55 7 -21 17 -42 21 -47 4 -6 8
-18 8 -28 0 -24 47 -107 82 -144 58 -62 97 -66 513 -61 458 6 482 10 580 112
22 23 56 63 75 90 19 26 52 66 72 89 88 98 85 90 113 272 14 93 30 187 35 209
6 22 21 128 35 235 14 107 34 237 45 290 11 52 24 136 30 185 23 184 30 231
44 290 9 33 16 83 16 110 0 28 7 78 15 113 26 111 20 247 -13 285 -15 17 -32
26 -106 56 -53 22 -368 57 -711 80 -406 26 -753 33 -1545 28 -448 -2 -887 -9
-975 -15 -178 -12 -167 -15 -213 60 -42 68 -62 71 -443 65 -587 -8 -789 -35
-806 -106 -3 -14 -14 -42 -25 -62 -13 -23 -33 -115 -57 -253 -26 -154 -41
-220 -51 -226 -9 -5 -42 -10 -75 -12 l-60 -3 -3 78 c-2 55 9 150 37 325 85
520 103 632 127 797 14 94 24 195 23 225 -3 50 -1 56 25 71 27 16 150 59 171
59 6 0 10 -44 10 -113 0 -107 2 -116 28 -155 15 -23 62 -69 105 -103 42 -33
86 -68 97 -77 218 -178 295 -200 647 -188 106 3 288 9 403 12 194 5 333 21
374 43 28 15 54 50 48 64 -3 8 1 33 9 56 8 22 21 103 30 178 8 76 21 167 29
203 72 339 98 440 115 440 4 0 13 39 20 88 7 48 23 121 36 162 24 76 57 233
72 348 10 73 -10 166 -64 292 -31 72 -37 85 -44 105 -40 102 -149 322 -196
395 -65 99 -96 125 -147 122 -23 -1 -80 4 -127 12 -80 14 -226 35 -400 56
-181 23 -393 33 -794 39 -330 5 -430 9 -434 19 -5 17 -968 18 -974 1z m1337
-128 c385 -10 745 -26 775 -36 9 -3 59 -9 111 -15 52 -5 144 -17 204 -26 61
-8 139 -19 175 -22 l65 -7 -3 -60 c-2 -33 -12 -121 -23 -195 -11 -74 -26 -211
-34 -305 -19 -230 -97 -712 -150 -920 -23 -93 -52 -224 -65 -290 -12 -66 -24
-125 -25 -132 -2 -7 -38 -13 -92 -17 -48 -3 -146 -12 -218 -19 -72 -6 -268
-12 -440 -12 l-310 0 1 85 c0 47 4 159 9 250 4 91 5 200 1 242 -7 76 -8 77
-44 95 -31 15 -69 18 -228 21 -268 5 -552 -11 -598 -35 -84 -44 -109 -129
-141 -488 -4 -38 -22 -146 -40 -240 -19 -93 -41 -224 -50 -290 -9 -66 -27
-196 -40 -290 -13 -93 -27 -206 -30 -250 -3 -44 -13 -134 -21 -200 -16 -124
-12 -266 8 -311 21 -45 51 -49 398 -49 343 1 407 8 462 48 33 24 41 57 73 272
28 188 47 266 70 285 22 18 396 45 791 55 l231 6 20 -25 c17 -21 19 -32 12
-63 -5 -21 -23 -135 -40 -253 -17 -118 -43 -300 -59 -405 -16 -104 -31 -235
-34 -290 -6 -92 -87 -640 -97 -649 -5 -5 -271 -23 -619 -41 -540 -28 -1854
-18 -2065 15 -33 6 -81 10 -106 10 -25 0 -86 6 -135 14 -49 8 -127 19 -174 26
-47 6 -95 13 -108 16 l-23 5 2 222 c2 282 19 487 73 876 14 97 28 217 31 266
7 91 22 219 50 420 8 61 22 190 30 287 9 98 17 183 20 190 2 7 18 123 35 258
17 135 40 298 50 363 11 64 17 123 14 131 -3 7 9 98 25 202 17 104 48 303 71
442 22 139 52 292 66 340 23 80 64 289 79 404 3 26 10 50 15 53 12 7 209 23
500 40 253 14 839 13 1545 -4z m1562 -471 c14 -30 30 -66 36 -80 5 -14 13 -33
18 -42 5 -10 9 -27 9 -38 0 -11 5 -20 10 -20 6 0 10 -7 10 -15 0 -13 20 -65
41 -107 5 -10 9 -25 9 -33 0 -8 5 -23 11 -33 13 -22 -53 -416 -79 -470 -11
-20 -27 -80 -37 -132 -10 -52 -28 -122 -40 -155 -12 -33 -30 -94 -39 -136 -10
-46 -25 -84 -36 -94 -46 -42 -231 26 -238 87 -2 15 1 36 7 46 10 20 59 275
105 547 40 237 76 518 86 670 6 77 12 160 16 185 l6 45 40 -85 c21 -47 51
-110 65 -140z m-2184 -1453 c78 -76 107 -111 107 -129 0 -25 -30 -225 -100
-668 -57 -366 -74 -455 -85 -455 -5 0 -28 38 -52 85 -39 79 -55 122 -85 225
-6 22 -18 60 -26 85 -21 65 -43 148 -62 235 -5 22 -14 58 -20 80 -31 110 -31
116 -6 245 13 69 31 152 40 185 8 34 20 118 25 188 5 70 13 131 16 137 7 12
86 -56 248 -213z m3257 -1052 c728 -11 1071 -27 1400 -64 297 -35 366 -44 372
-50 8 -7 -5 -204 -22 -351 -5 -47 -16 -159 -25 -250 -8 -91 -22 -205 -30 -255
-9 -49 -25 -144 -36 -210 -27 -163 -83 -431 -113 -539 -14 -48 -28 -114 -32
-146 l-6 -58 -46 -6 c-24 -3 -69 -6 -98 -6 -29 0 -86 -4 -126 -10 -98 -12
-799 -34 -839 -25 l-31 7 6 92 c13 171 11 470 -3 503 -23 56 -38 58 -446 57
-439 0 -477 -5 -530 -67 -57 -67 -75 -138 -85 -337 -6 -135 -16 -215 -43 -350
-19 -96 -40 -222 -47 -280 -6 -58 -24 -199 -40 -315 -35 -259 -57 -564 -41
-593 6 -12 11 -29 11 -40 0 -11 12 -28 28 -38 25 -18 53 -19 417 -19 542 0
518 -11 560 270 40 274 45 295 69 305 52 21 523 45 866 45 249 0 255 0 253
-20 -1 -11 -15 -114 -32 -230 -30 -219 -53 -410 -72 -605 -12 -127 -96 -717
-104 -729 -2 -5 -84 -14 -182 -20 -98 -6 -229 -16 -291 -22 -180 -15 -1673
-23 -1982 -9 -360 15 -666 40 -753 60 -23 5 -61 10 -84 10 -74 0 -143 21 -149
45 -8 32 2 579 14 766 6 91 20 228 31 305 11 76 32 252 46 389 47 469 70 659
82 670 7 7 65 14 150 18 138 6 389 25 430 33 32 6 67 61 65 100 -2 18 7 50 18
71 11 21 20 48 20 60 0 12 13 57 29 101 16 44 37 131 46 193 10 66 24 125 34
139 10 14 25 57 35 95 11 39 25 78 33 87 13 14 25 74 73 347 5 30 17 62 25 71
9 10 21 47 28 83 9 55 8 69 -7 100 -9 20 -24 42 -34 49 -10 7 -49 63 -87 123
-75 119 -197 301 -252 377 -25 34 -31 49 -21 52 23 8 379 27 538 30 154 2 271
1 1010 -9z m-1605 -188 c28 -40 51 -78 53 -84 2 -7 8 -13 13 -13 5 0 9 -5 9
-10 0 -6 18 -35 40 -65 22 -30 40 -57 40 -61 0 -4 11 -22 25 -40 14 -18 25
-36 25 -39 0 -4 33 -53 74 -110 l74 -103 -13 -70 c-8 -39 -21 -85 -30 -102 -9
-17 -25 -72 -36 -121 -11 -50 -26 -100 -33 -112 -8 -12 -21 -57 -30 -100 -9
-43 -25 -99 -36 -125 -15 -35 -60 -221 -60 -248 0 -16 -109 4 -257 47 -18 5
-48 13 -67 18 -50 13 -58 20 -52 48 4 13 13 61 21 106 55 303 75 441 75 507 0
75 99 750 109 750 3 -1 29 -33 56 -73z m2975 -1874 c0 -5 -29 -39 -65 -76
l-66 -69 -137 -9 c-290 -18 -399 -22 -414 -13 -8 5 -41 39 -72 77 l-57 67 163
0 c176 0 336 8 408 20 60 10 240 12 240 3z m-290 -2366 c0 -7 -127 -95 -170
-119 -90 -49 -156 -64 -340 -78 -63 -4 -200 -16 -305 -26 -260 -24 -258 -24
-342 24 -39 22 -107 57 -151 78 -45 22 -81 42 -81 45 -1 3 113 9 252 13 726
22 959 35 1011 56 20 8 126 14 126 7z"/>
<path d="M6905 8455 c-37 -36 -33 -79 9 -121 27 -27 42 -34 73 -34 69 0 109
60 79 118 -34 65 -115 84 -161 37z"/>
<path d="M229 6511 c-51 -50 -54 -98 -10 -142 35 -34 72 -37 118 -9 94 57 70
190 -35 190 -27 0 -43 -9 -73 -39z"/>
<path d="M0 3156 l0 -3156 624 0 c517 0 625 2 629 14 9 23 47 26 65 5 20 -23
73 -25 106 -4 23 15 56 11 56 -6 0 -5 773 -9 1855 -9 1020 0 1855 2 1855 5 0
25 -84 169 -130 225 -33 39 -60 74 -60 78 1 4 7 18 15 32 22 38 18 78 -10 105
-32 33 -70 32 -105 -4 -26 -26 -33 -28 -67 -20 -231 50 -294 53 -443 20 -124
-27 -197 -24 -378 15 -106 23 -123 24 -181 13 -47 -9 -113 -10 -240 -3 -343
16 -552 7 -635 -29 -21 -9 -53 -17 -70 -17 -18 0 -95 -18 -172 -39 -76 -22
-165 -45 -196 -52 -32 -7 -58 -16 -58 -20 0 -20 -64 -41 -104 -34 -43 7 -203
8 -215 1 -13 -8 -256 -6 -316 3 -94 13 -136 28 -203 68 -74 45 -213 163 -249
213 -61 81 -158 182 -214 222 -34 24 -78 58 -99 75 -20 18 -42 33 -48 33 -14
0 -76 71 -105 121 -31 54 -52 127 -67 239 -12 79 -11 92 13 190 14 60 28 157
33 225 4 66 8 136 9 155 2 20 8 62 15 94 6 32 13 122 13 200 2 138 1 143 -34
241 -20 55 -56 144 -80 197 -36 80 -48 98 -66 98 -49 0 -72 71 -34 109 18 18
18 20 -1 72 -65 179 -100 305 -115 417 -15 106 -19 122 -36 122 -75 0 -117 95
-61 139 15 12 35 21 44 21 15 0 17 7 14 38 -2 20 -8 94 -13 163 -6 89 -14 138
-28 171 -19 42 -23 45 -52 40 -58 -8 -111 31 -111 84 0 24 47 64 75 64 32 0
32 19 -1 90 -128 271 -164 391 -164 540 0 84 4 114 25 208 4 18 12 22 41 22
83 0 115 104 53 175 l-31 35 7 153 c7 160 -9 356 -42 502 -8 39 -19 95 -23
125 -11 76 -43 202 -71 282 -26 74 -37 81 -115 77 -21 -1 -54 1 -71 5 l-33 8
0 -3156z m334 -54 c9 -14 -12 -35 -28 -29 -23 9 -20 37 3 37 11 0 22 -4 25 -8z
m232 -553 c8 -14 -11 -33 -25 -25 -11 7 -4 36 9 36 5 0 12 -5 16 -11z m-171
-1149 c0 -7 -6 -15 -12 -17 -8 -3 -13 4 -13 17 0 13 5 20 13 18 6 -3 12 -11
12 -18z m126 -590 c33 -32 33 -63 1 -87 -22 -18 -35 -16 -66 8 -33 26 -35 71
-4 93 30 22 35 21 69 -14z m509 -406 c0 -9 -5 -14 -12 -12 -18 6 -21 28 -4 28
9 0 16 -7 16 -16z"/>
<path d="M409 6281 c-53 -53 -30 -141 37 -143 43 -1 74 18 90 58 38 91 -57
154 -127 85z"/>
<path d="M1325 6229 c-10 -15 3 -25 16 -12 7 7 7 13 1 17 -6 3 -14 1 -17 -5z"/>
<path d="M511 6014 c-45 -58 -15 -144 51 -144 l31 0 -26 24 c-31 29 -42 64
-33 111 8 42 4 43 -23 9z"/>
<path d="M9059 5431 c-54 -55 -33 -162 39 -197 110 -52 191 105 101 196 -42
42 -98 42 -140 1z"/>
<path d="M9130 4500 c-26 -26 -25 -52 3 -78 44 -41 117 -17 117 38 0 54 -79
81 -120 40z"/>
<path d="M9977 3962 c-32 -13 -96 -83 -118 -130 -16 -33 -25 -77 -32 -156 -8
-101 -7 -123 17 -244 30 -152 33 -273 10 -351 -8 -29 -35 -94 -59 -144 l-43
-92 9 -130 c10 -153 40 -315 74 -417 14 -40 34 -109 46 -153 11 -44 34 -128
50 -187 17 -59 39 -147 49 -195 19 -88 19 -84 19 1060 1 631 0 1147 -1 1146
-2 0 -11 -4 -21 -7z"/>
<path d="M7994 3621 c-94 -57 -38 -183 67 -152 72 22 97 103 45 148 -33 28
-70 29 -112 4z"/>
<path d="M7464 3570 c-73 -29 -72 -153 1 -160 42 -5 57 1 86 29 69 69 3 168
-87 131z"/>
<path d="M1912 3548 c-30 -30 -2 -72 45 -66 21 2 29 9 31 27 6 40 -48 67 -76
39z"/>
<path d="M2083 2853 c-18 -7 -16 -52 2 -59 19 -8 45 13 45 36 0 14 -23 34 -33
29 -1 0 -8 -3 -14 -6z"/>
<path d="M2375 2780 c-8 -13 4 -32 16 -25 12 8 12 35 0 35 -6 0 -13 -4 -16
-10z"/>
<path d="M4113 2686 c-85 -38 -65 -146 27 -146 53 0 90 34 90 83 0 58 -57 89
-117 63z"/>
<path d="M3990 2470 c-28 -28 -26 -66 5 -86 23 -15 27 -15 50 0 33 22 42 61
20 86 -23 25 -50 25 -75 0z"/>
<path d="M4373 1751 c-36 -23 -47 -49 -38 -91 10 -46 50 -72 104 -68 45 3 46
4 46 38 0 27 5 37 23 45 25 11 27 18 11 47 -11 21 -66 48 -96 48 -10 0 -32 -9
-50 -19z"/>
<path d="M8940 1725 c0 -8 5 -15 10 -15 6 0 10 7 10 15 0 8 -4 15 -10 15 -5 0
-10 -7 -10 -15z"/>
<path d="M9992 1455 c-31 -408 -32 -432 -16 -491 8 -32 17 -60 19 -63 9 -8 5
154 -4 186 -6 20 -6 46 0 67 5 19 8 101 6 183 -1 81 -4 135 -5 118z"/>
<path d="M5481 1079 c-84 -18 -113 -106 -53 -160 39 -35 91 -38 140 -9 101 62
33 195 -87 169z"/>
<path d="M4678 845 c-25 -55 61 -113 95 -64 9 12 13 29 10 38 -20 55 -84 71
-105 26z"/>
<path d="M8548 522 c-50 -31 -74 -116 -44 -157 12 -16 10 -21 -12 -40 -49 -42
-1 -106 53 -71 16 10 25 26 25 41 0 19 5 25 20 25 61 0 110 58 110 130 0 78
-81 117 -152 72z"/>
<path d="M8267 454 c-13 -13 -7 -42 10 -48 21 -8 36 6 31 30 -3 19 -29 30 -41
18z"/>
<path d="M5301 256 c-16 -19 -11 -46 12 -60 15 -9 21 -7 33 8 12 17 12 23 1
40 -18 26 -31 30 -46 12z"/>
<path d="M8652 217 c-45 -48 -15 -107 53 -107 37 0 75 35 75 68 0 57 -86 83
-128 39z"/>
<path d="M9979 68 c-6 -13 -21 -33 -32 -45 l-20 -23 36 0 37 0 0 45 c0 51 -4
55 -21 23z"/>
</g>
</svg>
