<?xml version="1.0" standalone="no"?>
<!DOCTYPE svg PUBLIC "-//W3C//DTD SVG 20010904//EN"
 "http://www.w3.org/TR/2001/REC-SVG-20010904/DTD/svg10.dtd">
<svg version="1.0" xmlns="http://www.w3.org/2000/svg"
 width="227.000000pt" height="227.000000pt" viewBox="0 0 227.000000 227.000000"
 preserveAspectRatio="xMidYMid meet">
<metadata>
Created by potrace 1.11, written by Peter Selinger 2001-2013
</metadata>
<g transform="translate(0.000000,227.000000) scale(0.100000,-0.100000)"
fill="#000000" stroke="none">
<path d="M822 1950 c-7 -11 -20 -20 -31 -20 -21 0 -101 -55 -101 -70 0 -5 21
6 46 25 25 19 53 35 63 35 17 0 51 29 51 43 0 14 -16 6 -28 -13z"/>
<path d="M1140 1870 c0 -5 15 -10 33 -10 24 0 28 3 17 10 -20 13 -50 13 -50 0z"/>
<path d="M789 1773 c-88 -196 -281 -644 -280 -651 1 -1 43 -5 94 -8 l93 -4 69
167 c92 227 104 253 115 253 6 0 10 -20 10 -45 0 -41 2 -45 24 -45 22 0 25 -5
28 -42 l3 -43 105 -3 c58 -1 110 1 115 5 6 5 30 47 53 95 42 87 42 87 42 202
0 92 -3 116 -14 116 -7 0 -16 10 -20 23 -5 17 -11 7 -32 -52 -41 -121 -27
-112 -167 -109 l-122 3 3 30 c2 16 10 41 17 55 13 25 45 106 45 115 0 3 -34 5
-75 5 l-75 0 -31 -67z"/>
<path d="M1060 1765 c-14 -8 -36 -15 -50 -16 -19 -1 -21 -2 -6 -6 10 -3 35 2
55 11 20 8 45 17 56 19 16 4 15 5 -5 5 -14 1 -36 -5 -50 -13z"/>
<path d="M1557 1700 c-3 -12 -17 -22 -34 -26 -30 -6 -117 -73 -96 -74 6 0 25
11 41 25 17 14 44 30 61 36 34 12 72 59 47 59 -7 0 -16 -9 -19 -20z"/>
<path d="M520 1615 c-47 -30 -87 -60 -89 -66 -2 -8 1 -9 10 -4 77 46 185 126
167 125 -2 0 -41 -25 -88 -55z"/>
<path d="M1870 1628 c0 -4 14 -8 32 -8 17 0 28 3 24 8 -10 10 -56 10 -56 0z"/>
<path d="M1543 1553 c-8 -21 -72 -182 -140 -358 -69 -176 -127 -326 -130 -332
-4 -10 18 -13 89 -13 l94 0 49 133 c83 226 110 290 123 295 8 2 12 -9 12 -37
0 -35 4 -43 25 -51 20 -8 25 -16 25 -45 l0 -36 116 3 117 3 39 90 c38 89 39
91 37 208 -1 86 -5 117 -14 117 -7 0 -16 12 -20 28 -6 24 -10 17 -31 -53 -13
-44 -23 -83 -24 -87 0 -4 -7 -14 -16 -22 -12 -13 -39 -16 -130 -16 -129 0
-131 2 -97 78 9 20 15 40 15 44 -1 4 5 23 13 42 8 19 15 38 15 41 0 3 -34 5
-76 5 l-75 0 -16 -37z"/>
<path d="M1806 1525 c-11 -8 -38 -15 -60 -16 -32 0 -36 -2 -21 -9 22 -9 63 -3
82 12 6 5 24 13 40 18 27 8 27 8 3 9 -14 0 -34 -6 -44 -14z"/>
<path d="M1280 1360 c-36 -27 -70 -50 -76 -50 -10 0 -24 -21 -24 -36 0 -6 104
68 150 106 58 49 20 33 -50 -20z"/>
<path d="M1017 1270 c-5 -14 -20 -58 -34 -97 l-25 -73 -59 0 -58 0 -12 -40
c-14 -45 -23 -50 -40 -19 -8 15 -8 24 0 32 17 17 13 31 -4 17 -19 -16 -19 -39
0 -64 8 -10 12 -22 10 -27 -3 -4 -111 -8 -240 -8 -259 -2 -261 -1 -231 58 24
46 21 51 -38 51 l-54 0 -6 -44 c-6 -39 -2 -54 28 -113 20 -37 55 -99 78 -138
l43 -70 237 -3 238 -2 15 37 c25 64 30 68 78 71 25 2 50 9 56 15 5 7 24 48 41
91 29 73 31 86 28 179 -2 84 -6 101 -20 105 -10 2 -18 16 -20 36 -3 30 -3 30
-11 6z m-708 -292 c19 -50 23 -73 13 -63 -17 16 -42 85 -31 85 5 0 13 -10 18
-22z"/>
<path d="M370 1259 c-12 -8 -8 -10 15 -8 48 2 53 0 60 -21 7 -21 36 -25 70 -9
15 7 10 8 -18 4 -30 -5 -39 -2 -44 12 -12 33 -52 44 -83 22z"/>
<path d="M1771 1000 c-7 -25 -20 -67 -30 -95 l-19 -50 -58 -5 -58 -5 -11 -43
-10 -44 -20 22 c-16 17 -17 24 -7 41 14 22 0 26 -18 4 -9 -11 -8 -20 6 -44 10
-17 16 -32 13 -34 -9 -9 -465 -25 -473 -17 -5 5 -2 26 8 50 9 22 16 42 16 43
0 2 -26 3 -57 2 l-58 -2 -6 -39 c-6 -33 -1 -49 29 -104 31 -55 117 -197 128
-209 4 -5 182 -2 346 5 l137 7 16 48 c17 49 22 53 88 65 35 6 41 12 64 63 14
31 29 78 32 106 8 68 -7 206 -24 219 -7 6 -15 22 -17 36 -4 21 -6 17 -17 -20z
m-685 -306 c8 -20 14 -43 12 -51 -2 -9 -13 7 -25 36 -12 28 -17 51 -12 51 6 0
17 -16 25 -36z"/>
<path d="M1125 989 c-5 -7 4 -8 27 -4 30 6 37 3 52 -19 13 -21 22 -25 44 -20
15 4 31 10 36 15 5 5 -4 5 -22 0 -27 -8 -33 -6 -47 15 -11 18 -25 24 -50 24
-18 0 -37 -5 -40 -11z"/>
</g>
</svg>
